<svg width="60" height="60" viewBox="0 0 60 60" fill="none" xmlns="http://www.w3.org/2000/svg">
<path d="M30.7499 54.9992H30.4999C27.0713 54.9731 23.6822 54.2631 20.5314 52.9109C17.3805 51.5587 14.531 49.5914 12.1499 47.1242C7.73455 42.4024 5.22465 36.2125 5.10461 29.749C4.98457 23.2855 7.26292 17.0067 11.4999 12.1242C14.2296 9.06506 17.6613 6.71441 21.4999 5.2742C21.9479 5.10185 22.4359 5.06206 22.9058 5.15959C23.3757 5.25712 23.8076 5.48784 24.1499 5.8242C24.467 6.14751 24.6903 6.55085 24.7959 6.99116C24.9016 7.43148 24.8857 7.89222 24.7499 8.3242C23.3798 12.0765 23.1084 16.1418 23.9674 20.043C24.8265 23.9442 26.7804 27.5194 29.5999 30.3492C32.4457 33.1601 36.0295 35.1074 39.9363 35.9657C43.843 36.8241 47.913 36.5583 51.6749 35.1992C52.1227 35.0416 52.6061 35.0147 53.0686 35.1217C53.5311 35.2287 53.9535 35.4652 54.2866 35.8035C54.6196 36.1417 54.8494 36.5678 54.9492 37.0319C55.049 37.496 55.0145 37.979 54.8499 38.4242C53.5728 41.8335 51.5778 44.9284 48.9999 47.4992C46.602 49.89 43.7553 51.7833 40.6234 53.0704C37.4914 54.3575 34.136 55.013 30.7499 54.9992ZM18.6499 12.2992C17.3941 13.1799 16.2448 14.2035 15.2249 15.3492C11.7863 19.2895 9.93349 24.3665 10.0259 29.5955C10.1183 34.8245 12.1492 39.8328 15.7249 43.6492C17.6463 45.6447 19.9481 47.2347 22.4944 48.3254C25.0408 49.4161 27.7799 49.9852 30.5499 49.9992H30.7499C34.0654 49.9973 37.3327 49.2048 40.2805 47.6874C43.2284 46.17 45.7719 43.9714 47.6999 41.2742C43.7708 41.7833 39.7773 41.3851 36.026 40.1102C32.2748 38.8352 28.8657 36.7175 26.0605 33.9196C23.2553 31.1216 21.1288 27.718 19.8441 23.9701C18.5595 20.2221 18.151 16.2296 18.6499 12.2992Z" fill="black"/>
</svg>
